<svg width="22" height="26" viewBox="0 0 22 26" fill="none" xmlns="http://www.w3.org/2000/svg">
<path d="M18.2618 13.7401C18.2493 11.6089 19.2149 10.0027 21.1648 8.81841C20.0742 7.25597 18.4243 6.39663 16.2494 6.23101C14.1901 6.06851 11.937 7.43096 11.1121 7.43096C10.2402 7.43096 8.24656 6.28726 6.67787 6.28726C3.44049 6.33725 0 8.8684 0 14.0182C0 15.54 0.278114 17.1118 0.834342 18.7305C1.57806 20.8617 4.25921 26.0834 7.05598 25.999C8.51842 25.9646 9.55275 24.9615 11.4558 24.9615C13.3026 24.9615 14.2588 25.999 15.89 25.999C18.7118 25.9584 21.1367 21.2117 21.8429 19.0743C18.0587 17.29 18.2618 13.8495 18.2618 13.7401ZM14.9775 4.20921C16.5619 2.32803 16.4181 0.615601 16.3712 0C14.9713 0.0812468 13.3526 0.953088 12.4308 2.02492C11.4152 3.17488 10.8183 4.5967 10.9464 6.19976C12.4589 6.31538 13.8401 5.53728 14.9775 4.20921Z" fill="black"/>
</svg>
