<svg width="25" height="22" viewBox="0 0 25 22" fill="none" xmlns="http://www.w3.org/2000/svg">
<path d="M21.5661 3.37244C21.0312 2.83738 20.3963 2.41292 19.6974 2.12333C18.9985 1.83374 18.2494 1.68469 17.4928 1.68469C16.7363 1.68469 15.9872 1.83374 15.2883 2.12333C14.5894 2.41292 13.9544 2.83738 13.4196 3.37244L12.3097 4.48237L11.1997 3.37244C10.1195 2.29215 8.65427 1.68525 7.12651 1.68525C5.59875 1.68525 4.13357 2.29215 3.05328 3.37244C1.97299 4.45273 1.36609 5.91791 1.36609 7.44567C1.36609 8.97343 1.97299 10.4386 3.05328 11.5189L12.3097 20.7753L21.5661 11.5189C22.1011 10.9841 22.5256 10.3491 22.8152 9.6502C23.1048 8.9513 23.2538 8.20219 23.2538 7.44567C23.2538 6.68915 23.1048 5.94005 22.8152 5.24115C22.5256 4.54225 22.1011 3.90725 21.5661 3.37244Z" stroke="#FF5858" stroke-width="2" stroke-linecap="round" stroke-linejoin="round"/>
</svg>
