<svg width="32" height="26" viewBox="0 0 32 26" fill="none" xmlns="http://www.w3.org/2000/svg">
<path d="M31.7778 3.07782C30.6085 3.59983 29.352 3.95263 28.0332 4.11134C29.3794 3.29902 30.4131 2.01268 30.8998 0.480019C29.6201 1.24458 28.2199 1.78326 26.7599 2.07279C25.5706 0.797199 23.8763 0 22.001 0C18.4005 0 15.4812 2.93885 15.4812 6.56355C15.4812 7.07806 15.539 7.57895 15.6501 8.05947C10.2317 7.78565 5.42779 5.17261 2.21216 1.20148C1.65108 2.1709 1.32958 3.29852 1.32958 4.50126C1.32958 6.7785 2.48065 8.78743 4.22992 9.96455C3.1946 9.9319 2.18205 9.65038 1.27682 9.14348C1.27645 9.17097 1.27645 9.19847 1.27645 9.22609C1.27645 12.4063 3.52373 15.0592 6.50613 15.6622C5.54607 15.925 4.53904 15.9635 3.56197 15.7746C4.39154 18.3823 6.79933 20.2799 9.65213 20.333C7.42086 22.0934 4.60964 23.1428 1.55525 23.1428C1.02893 23.1428 0.510058 23.1116 0 23.051C2.8852 24.9134 6.31211 26 9.99386 26C21.9859 26 28.5434 15.9983 28.5434 7.32476C28.5434 7.04007 28.5372 6.75701 28.5245 6.47557C29.8009 5.54663 30.9025 4.39605 31.7778 3.07782Z" fill="#55ACEE"/>
</svg>
