<svg width="414" height="95" viewBox="0 0 414 95" fill="none" xmlns="http://www.w3.org/2000/svg">
<path fill-rule="evenodd" clip-rule="evenodd" d="M0 45H17C35 45 69 45 104 50C138 54 173 62 207 60C242 58 276 45 311 39C345 33 380 33 397 33H414V95H397C380 95 345 95 311 95C276 95 242 95 207 95C173 95 138 95 104 95C69 95 35 95 17 95H0V45Z" fill="#FF5A5F"/>
<path fill-rule="evenodd" clip-rule="evenodd" d="M0 12.585L17 16.585C35 20.585 69 29.585 104 35.585C138 41.585 173 45.585 207 37.585C242 29.585 276 8.585 311 2.585C345 -4.415 380 4.585 397 8.585L414 12.585V74.585H397C380 74.585 345 74.585 311 74.585C276 74.585 242 74.585 207 74.585C173 74.585 138 74.585 104 74.585C69 74.585 35 74.585 17 74.585H0V12.585Z" fill="#FF5A5F" fill-opacity="0.75"/>
<path fill-rule="evenodd" clip-rule="evenodd" d="M0 21.3797L17.25 19.3122C34.5 17.2447 69 13.1097 103.5 19.3122C138 25.5148 172.5 42.0548 207 39.9873C241.5 37.9198 276 17.2447 310.5 15.1772C345 13.1097 379.5 29.6498 396.75 37.9198L414 46.1899V71H396.75C379.5 71 345 71 310.5 71C276 71 241.5 71 207 71C172.5 71 138 71 103.5 71C69 71 34.5 71 17.25 71H0V21.3797Z" fill="#FF5A5F" fill-opacity="0.5"/>
</svg>
